<?xml version="1.0" encoding="utf-8"?>
<!-- Generator: Adobe Illustrator 18.1.1, SVG Export Plug-In . SVG Version: 6.00 Build 0)  -->
<!DOCTYPE svg PUBLIC "-//W3C//DTD SVG 1.1//EN" "http://www.w3.org/Graphics/SVG/1.1/DTD/svg11.dtd">
<svg version="1.1" id="Capa_1" xmlns="http://www.w3.org/2000/svg" xmlns:xlink="http://www.w3.org/1999/xlink" x="0px" y="0px"
	 viewBox="0 0 512 512" enable-background="new 0 0 512 512" xml:space="preserve">
<g>
	<g>
		<path fill="#030104" d="M390.5,213c-66-141.9-100.2-195.8-208-193.6c-38.4,0.8-29.2-27.8-58.4-16.9C94.9,13.3,119.9,29.2,90,53.7
			C6.1,122.6,13.8,186.4,52.7,338.3c16.4,64-39.5,67.1-17.4,129.2c16.2,45.2,135.3,64.2,261,17.5
			c125.7-46.6,205.1-139.2,188.9-184.5C463.1,238.5,418.3,272.7,390.5,213z M282.7,446.8C170.5,488.4,78.2,463.9,74.3,453
			c-6.7-18.8,36.2-81.4,164.6-129.1c128.4-47.6,200-30,207.5-9C450.8,327.4,395,405.1,282.7,446.8z M246.6,345.7
			c-58.7,21.8-99.5,46.7-125.9,69.1c18.6,16.9,53.4,21,88.1,8.1c44.2-16.4,71.3-54,60.6-84c-0.1-0.4-0.3-0.7-0.5-1
			C261.7,340.3,254.3,342.9,246.6,345.7z"/>
	</g>
</g>
</svg>
