<?xml version="1.0" encoding="utf-8"?>
<!-- Generator: Adobe Illustrator 18.1.1, SVG Export Plug-In . SVG Version: 6.00 Build 0)  -->
<!DOCTYPE svg PUBLIC "-//W3C//DTD SVG 1.1//EN" "http://www.w3.org/Graphics/SVG/1.1/DTD/svg11.dtd">
<svg version="1.1" id="Capa_1" xmlns="http://www.w3.org/2000/svg" xmlns:xlink="http://www.w3.org/1999/xlink" x="0px" y="0px"
	 viewBox="-55 57 400 400" enable-background="new -55 57 400 400" xml:space="preserve">
<g>
	<g>
		<path fill="#AAAAAA" d="M145,57C34.7,57-55,146.7-55,257s89.7,200,200,200s200-89.7,200-200S255.3,57,145,57z M145,430.8
			c-95.8,0-173.8-78-173.8-173.8c0-95.8,77.9-173.8,173.8-173.8s173.8,78,173.8,173.8C318.8,352.8,240.8,430.8,145,430.8z"/>
		<path fill="#AAAAAA" d="M217.4,191.5L114.3,294.7L72.6,253c-5.1-5.1-13.4-5.1-18.5,0c-5.1,5.1-5.1,13.4,0,18.5l51,51
			c2.6,2.6,5.9,3.8,9.3,3.8s6.7-1.3,9.3-3.8c0,0,0,0,0,0L236,210.1c5.1-5.1,5.1-13.4,0-18.5C230.8,186.4,222.5,186.4,217.4,191.5z"
			/>
	</g>
</g>
</svg>
