<?xml version="1.0" encoding="utf-8"?>
<!-- Generator: Adobe Illustrator 18.1.1, SVG Export Plug-In . SVG Version: 6.00 Build 0)  -->
<!DOCTYPE svg PUBLIC "-//W3C//DTD SVG 1.1//EN" "http://www.w3.org/Graphics/SVG/1.1/DTD/svg11.dtd">
<svg version="1.1" id="Capa_1" xmlns="http://www.w3.org/2000/svg" xmlns:xlink="http://www.w3.org/1999/xlink" x="0px" y="0px"
	 viewBox="50 -50 612 612" enable-background="new 50 -50 612 612" xml:space="preserve">
<g>
	<path d="M222.2,337.5l-0.3-129.5c0-5.9,6-9.9,11.4-7.6L342.6,247c3,1.3,5,4.3,5,7.5l0.3,129.5c0,5.9-6,9.9-11.4,7.6L227.2,345
		C224.2,343.7,222.2,340.7,222.2,337.5z M483.5,199.1c4.3,0,8.2,3.5,8.2,8.2l0.3,129.5c0,3.3-1.9,6.3-4.9,7.6l-109,47.2
		c-1.1,0.5-2.2,0.7-3.2,0.7c-4.3,0-8.2-3.5-8.2-8.2l-0.3-129.5c0-3.3,1.9-6.3,4.9-7.6l109-47.2C481.3,199.3,482.4,199.1,483.5,199.1
		L483.5,199.1z M355.2,113.6c1.1,0,2.3,0.2,3.3,0.7L473.4,165c6.5,2.9,6.5,12.1,0,15l-114.6,51.2c-1.1,0.5-2.2,0.7-3.3,0.7
		s-2.3-0.2-3.3-0.7l-114.9-50.6c-6.5-2.9-6.5-12.1,0-15l114.6-51.2C353,113.9,354.1,113.6,355.2,113.6L355.2,113.6z M381.6,487.6
		v-62.1h-51.1v62.1h-48.9L356,562l74.5-74.4H381.6z M587.6,230.4h-62.1v51.1h62.1v48.9L662,256l-74.4-74.5V230.4z M330.4,24.4v62.1
		h51.1V24.4h48.9L356-50l-74.5,74.4H330.4z M124.4,281.6h62.1v-51.1h-62.1v-48.9L50,256l74.4,74.5V281.6z"/>
</g>
</svg>
