<?xml version="1.0" encoding="utf-8"?>
<!-- Generator: Adobe Illustrator 18.1.1, SVG Export Plug-In . SVG Version: 6.00 Build 0)  -->
<!DOCTYPE svg PUBLIC "-//W3C//DTD SVG 1.1//EN" "http://www.w3.org/Graphics/SVG/1.1/DTD/svg11.dtd">
<svg version="1.1" id="Capa_1" xmlns="http://www.w3.org/2000/svg" xmlns:xlink="http://www.w3.org/1999/xlink" x="0px" y="0px"
	 viewBox="50 1.1 612 509.9" enable-background="new 50 1.1 612 509.9" xml:space="preserve">
<g>
	<path d="M574.5,14.9c-6.9-8.7-17.5-13.8-28.6-13.8H166.1c-11.1,0-21.7,5.1-28.6,13.8L64,107.1c-7.7,9.6-14,27.6-14,39.9v318.2
		c0,25.3,20.5,45.7,45.7,45.7h520.5c25.3,0,45.7-20.5,45.7-45.7V147c0-12.3-6.3-30.3-14-39.9L574.5,14.9z M530.5,320.9
		c-5.6,0-9.2-6.1-6.4-11l28.4-49.2c2.8-4.9,9.9-4.9,12.7,0l28.4,49.2c2.8,4.9-0.7,11-6.4,11h-11.9v91.8c0,4.1-3.3,7.3-7.3,7.3h-18.3
		c-4.1,0-7.3-3.3-7.3-7.3v-91.8L530.5,320.9L530.5,320.9z M420.5,320.9c-5.6,0-9.2-6.1-6.4-11l28.4-49.2c2.8-4.9,9.9-4.9,12.7,0
		l28.4,49.2c2.8,4.9-0.7,11-6.4,11h-11.9v91.8c0,4.1-3.3,7.3-7.3,7.3h-18.3c-4.1,0-7.3-3.3-7.3-7.3v-91.8L420.5,320.9L420.5,320.9z
		 M607.7,461.5c0,2-1.6,3.7-3.7,3.7H401.6c-2,0-3.7-1.6-3.7-3.7v-11c0-2,1.6-3.7,3.7-3.7H604c2,0,3.7,1.6,3.7,3.7L607.7,461.5
		L607.7,461.5z M112.3,75.7h166.1l16.4-26.9h-161l18-22.5c3.5-4.4,8.7-6.9,14.3-6.9h379.9c5.6,0,10.8,2.5,14.3,6.9l18,22.5H414.4
		l9.1,26.9h176.2l24.3,30.5H88L112.3,75.7z"/>
</g>
</svg>
