<?xml version="1.0" encoding="utf-8"?>
<!-- Generator: Adobe Illustrator 18.1.1, SVG Export Plug-In . SVG Version: 6.00 Build 0)  -->
<!DOCTYPE svg PUBLIC "-//W3C//DTD SVG 1.1//EN" "http://www.w3.org/Graphics/SVG/1.1/DTD/svg11.dtd">
<svg version="1.1" id="Capa_1" xmlns="http://www.w3.org/2000/svg" xmlns:xlink="http://www.w3.org/1999/xlink" x="0px" y="0px"
	 viewBox="50 -50 612 612" enable-background="new 50 -50 612 612" xml:space="preserve">
<g>
	<path d="M249.9-13.5c0-20.1,16.3-36.5,36.5-36.5c16.8,0,30.7,11.4,35,26.8c0.5,0,1-0.1,1.5-0.1c15.1,0,27.4,12.3,27.4,27.4
		c0,3.7-0.8,7.2-2.1,10.4l0,0c9.4,0,17,7.6,17,17c0,9.4-7.6,17-17,17c-9.4,0-17-7.6-17-17c0-0.5,0.1-1,0.1-1.5
		c-2.7,0.9-5.5,1.5-8.5,1.5c-9.2,0-17.2-4.5-22.2-11.4c-4.4,1.9-9.2,2.9-14.3,2.9C266.3,22.9,249.9,6.6,249.9-13.5z M266.5,167.1
		h-49.9c-8.8,0-15.9,7.1-15.9,15.9v106.2L356,214.8l155.3,74.4V182.9c0-8.8-7.1-15.9-15.9-15.9h-49.9 M445.5,151.2v-9.7
		c0-8.8-7.1-15.9-15.9-15.9h-38.5l-6.9-63.1h-56.5l-6.9,63.1h-38.5c-8.8,0-15.9,7.1-15.9,15.9v9.7H445.5z M356,232.3L125.2,342.9
		l68.3,199.3c31.7-14.8,72.5-28.5,114.3-28.5c67.2,0,121.1,32,192,48.3h11.8l75.1-219.1L356,232.3z"/>
</g>
</svg>
