<?xml version="1.0" encoding="utf-8"?>
<!-- Generator: Adobe Illustrator 18.1.1, SVG Export Plug-In . SVG Version: 6.00 Build 0)  -->
<!DOCTYPE svg PUBLIC "-//W3C//DTD SVG 1.1//EN" "http://www.w3.org/Graphics/SVG/1.1/DTD/svg11.dtd">
<svg version="1.1" id="Capa_1" xmlns="http://www.w3.org/2000/svg" xmlns:xlink="http://www.w3.org/1999/xlink" x="0px" y="0px"
	 viewBox="231.2 0 561.6 768" enable-background="new 231.2 0 561.6 768" xml:space="preserve">
<path d="M792.8,171.8v-0.4c0-0.1,0-0.1,0-0.2c0-0.8,0-1.5-0.1-2.2c0-0.2,0-0.3,0-0.5c-0.1-0.8-0.2-1.6-0.4-2.5c0,0,0-0.1,0-0.1
	c-0.2-0.7-0.3-1.5-0.6-2.2c-0.1-0.2-0.1-0.5-0.2-0.7c-0.2-0.5-0.4-1.1-0.6-1.6c-0.1-0.2-0.2-0.4-0.3-0.7c-0.3-0.7-0.6-1.4-1-2.1
	c-0.1-0.1-0.1-0.2-0.2-0.3c-0.3-0.6-0.6-1.1-1-1.7c-0.1-0.2-0.3-0.4-0.5-0.7c-0.3-0.4-0.6-0.8-0.9-1.2c-0.2-0.2-0.4-0.5-0.5-0.7
	c-0.3-0.4-0.7-0.8-1.1-1.2c-0.2-0.2-0.4-0.4-0.5-0.6c0,0,0,0,0,0L638.7,7.7c-0.6-0.5-1.1-1.1-1.7-1.5c-0.1-0.1-0.2-0.2-0.3-0.3
	c-0.5-0.4-1-0.8-1.6-1.2c-0.2-0.1-0.4-0.2-0.5-0.4c-0.5-0.3-1-0.7-1.6-1c-0.2-0.1-0.3-0.2-0.5-0.3c-0.7-0.4-1.4-0.7-2.1-1
	c-0.2-0.1-0.4-0.2-0.6-0.2c-0.5-0.2-1-0.4-1.5-0.6c-0.3-0.1-0.6-0.2-0.9-0.3c-0.5-0.2-1-0.3-1.6-0.4c-0.2-0.1-0.5-0.1-0.7-0.2
	c-0.7-0.1-1.5-0.3-2.3-0.3c-0.2,0-0.4,0-0.7-0.1c-0.6-0.1-1.3-0.1-1.9-0.1c-0.1,0-0.3,0-0.4,0H299c-37.3,0-67.8,30.4-67.8,67.8
	v632.5c0,37.4,30.4,67.8,67.8,67.8h426.1c37.4,0,67.7-30.4,67.7-67.8V171.9C792.8,171.9,792.8,171.8,792.8,171.8z M739.3,700.2
	c0,7.8-6.4,14.2-14.2,14.2H299c-7.8,0-14.2-6.4-14.2-14.2V67.8c0-7.8,6.4-14.2,14.2-14.2h294.2v76.9v0c0,30.3,20,56.1,47.6,64.7
	c1.1,0.3,2.1,0.6,3.2,0.9c2.2,0.6,4.4,1,6.6,1.4c3.4,0.5,6.8,0.8,10.3,0.8h78.4L739.3,700.2L739.3,700.2z"/>
</svg>
