<?xml version="1.0" encoding="utf-8"?>
<!-- Generator: Adobe Illustrator 18.1.1, SVG Export Plug-In . SVG Version: 6.00 Build 0)  -->
<!DOCTYPE svg PUBLIC "-//W3C//DTD SVG 1.1//EN" "http://www.w3.org/Graphics/SVG/1.1/DTD/svg11.dtd">
<svg version="1.1" id="Capa_1" xmlns="http://www.w3.org/2000/svg" xmlns:xlink="http://www.w3.org/1999/xlink" x="0px" y="0px"
	 viewBox="-467 341.4 87.6 87.6" enable-background="new -467 341.4 87.6 87.6" xml:space="preserve">
<g>
	<g id="Message">
		<g>
			<path d="M-423.2,344.1c-24.2,0-43.8,16.2-43.8,36.1c0,10.8,5.9,21,15.8,27.9c-1.4,5.1-4.3,8.2-4.3,8.2c-1.5,1.5-2,3.8-1.4,5.9
				c0,0.2,0.1,0.3,0.2,0.5c0.9,2.1,3.1,3.5,5.4,3.5c9.6,0,17.5-5.2,22.8-10.1c1.8,0.2,3.5,0.3,5.2,0.3c24.2,0,43.8-16.2,43.8-36.1
				C-379.4,360.3-399,344.1-423.2,344.1z M-423.2,408.1c-1.9,0-4-0.1-6.1-0.4c-1.3-0.2-2.6,0.3-3.5,1.2c-3.1,3.1-7.6,6.7-12.9,8.2
				c1.4-2.6,2.9-6.1,3.4-10.4c0.2-1.7-0.6-3.3-2-4.1c-9.1-5.3-14.3-13.5-14.3-22.3c0-15.3,15.9-27.8,35.4-27.8
				c19.5,0,35.4,12.5,35.4,27.8C-387.8,395.6-403.7,408.1-423.2,408.1z M-404.6,372.5h-35.7c-1.2,0-2.1,0.9-2.1,2.1
				c0,1.1,0.9,2.1,2.1,2.1h35.7c1.2,0,2.1-0.9,2.1-2.1C-402.5,373.4-403.5,372.5-404.6,372.5z M-404.6,384.7h-35.7
				c-1.2,0-2.1,0.9-2.1,2.1c0,1.1,0.9,2.1,2.1,2.1h35.7c1.2,0,2.1-0.9,2.1-2.1C-402.5,385.6-403.5,384.7-404.6,384.7z"/>
		</g>
	</g>
</g>
</svg>
