<?xml version="1.0" encoding="utf-8"?>
<!-- Generator: Adobe Illustrator 18.1.1, SVG Export Plug-In . SVG Version: 6.00 Build 0)  -->
<!DOCTYPE svg PUBLIC "-//W3C//DTD SVG 1.1//EN" "http://www.w3.org/Graphics/SVG/1.1/DTD/svg11.dtd">
<svg version="1.1" id="Capa_1" xmlns="http://www.w3.org/2000/svg" xmlns:xlink="http://www.w3.org/1999/xlink" x="0px" y="0px"
	 viewBox="21 131.4 554.6 248.6" enable-background="new 21 131.4 554.6 248.6" xml:space="preserve">
<g>
	<g>
		<path d="M250.5,207.9h-19.1c-11.5,0-19.1,7.6-19.1,19.1v57.4c0,11.5,7.6,19.1,19.1,19.1h19.1c11.5,0,19.1-7.6,19.1-19.1V227
			C269.6,215.5,262,207.9,250.5,207.9z"/>
		<path d="M135.8,207.9H97.5v95.6h38.2c11.5,0,19.1-7.6,19.1-19.1V227C154.9,215.5,147.2,207.9,135.8,207.9z"/>
		<path d="M518.2,131.4H78.4c-32.5,0-57.4,24.9-57.4,57.4v133.9c0,32.5,24.9,57.4,57.4,57.4h439.9c32.5,0,57.4-24.9,57.4-57.4V188.8
			C575.6,156.2,550.8,131.4,518.2,131.4z M174,284.4c0,21-17.2,38.2-38.2,38.2H78.4V188.8h57.4c21,0,38.2,17.2,38.2,38.2V284.4z
			 M288.8,284.4c0,21-17.2,38.2-38.2,38.2h-19.1c-21,0-38.2-17.2-38.2-38.2V227c0-21,17.2-38.2,38.2-38.2h19.1
			c21,0,38.2,17.2,38.2,38.2V284.4z M346.1,303.5h19.1c11.5,0,19.1-7.6,19.1-19.1h19.1c0,21-17.2,38.2-38.2,38.2h-19.1
			c-21,0-38.2-17.2-38.2-38.2V227c0-21,17.2-38.2,38.2-38.2h19.1c21,0,38.2,17.2,38.2,38.2h-19.1c0-11.5-7.6-19.1-19.1-19.1h-19.1
			c-11.5,0-19.1,7.6-19.1,19.1v57.4C327,295.9,334.6,303.5,346.1,303.5z M518.2,322.6h-19.1l-28.7-49.7l-28.7,49.7h-19.1l38.2-66.9
			l-38.2-66.9h19.1l28.7,49.7l28.7-49.7h19.1L480,255.7L518.2,322.6z"/>
	</g>
</g>
</svg>
