<?xml version="1.0" encoding="utf-8"?>
<!-- Generator: Adobe Illustrator 18.1.1, SVG Export Plug-In . SVG Version: 6.00 Build 0)  -->
<!DOCTYPE svg PUBLIC "-//W3C//DTD SVG 1.1//EN" "http://www.w3.org/Graphics/SVG/1.1/DTD/svg11.dtd">
<svg version="1.1" id="Capa_1" xmlns="http://www.w3.org/2000/svg" xmlns:xlink="http://www.w3.org/1999/xlink" x="0px" y="0px"
	 viewBox="68.3 66.6 375.5 378.9" enable-background="new 68.3 66.6 375.5 378.9" xml:space="preserve">
<path fill="" d="M440.8,175.1L335.3,69.5c-3.8-3.8-10-3.8-13.8,0l-0.4,0.4c-6.5,6.5-10.1,15.1-10.1,24.3
	c0,5.9,1.5,11.5,4.3,16.6l-110.5,94.9c-8.4-7.5-19.2-11.7-30.7-11.7c-12.4,0-23.9,4.8-32.6,13.5l-0.7,0.7c-3.8,3.8-3.8,10,0,13.8
	l63.3,63.3l-61.6,61.6c-1.3,1.3-30.4,31.3-49.6,55.3c-18.3,22.8-21.9,26.9-22,27.2c-3.4,3.8-3.2,9.7,0.4,13.3c1.9,1.9,4.4,2.9,7,2.9
	c2.3,0,4.6-0.8,6.4-2.4c0.1-0.1,4.2-3.7,27.2-22c23.9-19.2,54-48.4,55.3-49.7l61.6-61.6l59.9,59.9c1.9,1.9,4.4,2.9,6.9,2.9
	c2.5,0,5-1,6.9-2.9l0.7-0.7c8.7-8.7,13.5-20.3,13.5-32.6c0-11.5-4.1-22.2-11.7-30.7L399.6,195c5,2.8,10.7,4.3,16.6,4.3
	c9.2,0,17.8-3.6,24.3-10.1l0.4-0.4C444.7,185.1,444.7,178.9,440.8,175.1z"/>
</svg>
