<?xml version="1.0" encoding="utf-8"?>
<!-- Generator: Adobe Illustrator 18.1.1, SVG Export Plug-In . SVG Version: 6.00 Build 0)  -->
<!DOCTYPE svg PUBLIC "-//W3C//DTD SVG 1.1//EN" "http://www.w3.org/Graphics/SVG/1.1/DTD/svg11.dtd">
<svg version="1.1" id="Capa_1" xmlns="http://www.w3.org/2000/svg" xmlns:xlink="http://www.w3.org/1999/xlink" x="0px" y="0px"
	 viewBox="-12 14.8 485.2 485.2" enable-background="new -12 14.8 485.2 485.2" xml:space="preserve">
<g>
	<g>
		<path fill="#FFFFFF" d="M109.3,45.1h242.6v60.7h30.3V45.1c0-16.7-13.6-30.3-30.3-30.3H109.3C92.6,14.8,79,28.4,79,45.1v60.7h30.3
			C109.3,105.8,109.3,45.1,109.3,45.1z"/>
		<path fill="#FFFFFF" d="M442.9,136.1H18.3c-16.7,0-30.3,13.6-30.3,30.3V318c0,16.8,13.6,30.3,30.3,30.3H79v121.3
			c0,16.8,13.6,30.3,30.3,30.3h242.6c16.8,0,30.3-13.6,30.3-30.3V348.4h60.7c16.8,0,30.3-13.6,30.3-30.3V166.4
			C473.2,149.7,459.6,136.1,442.9,136.1z M351.9,469.7H109.3V257.4h242.6V469.7z M412.6,227.1c-16.8,0-30.3-13.6-30.3-30.3
			c0-16.7,13.6-30.3,30.3-30.3c16.8,0,30.3,13.6,30.3,30.3C442.9,213.5,429.3,227.1,412.6,227.1z"/>
		<rect x="139.6" y="287.7" fill="#FFFFFF" width="121.3" height="30.3"/>
		<rect x="139.6" y="348.4" fill="#FFFFFF" width="182" height="30.3"/>
		<rect x="139.6" y="409" fill="#FFFFFF" width="182" height="30.3"/>
	</g>
</g>
</svg>
