<?xml version="1.0" encoding="utf-8"?>
<!-- Generator: Adobe Illustrator 18.1.1, SVG Export Plug-In . SVG Version: 6.00 Build 0)  -->
<!DOCTYPE svg PUBLIC "-//W3C//DTD SVG 1.1//EN" "http://www.w3.org/Graphics/SVG/1.1/DTD/svg11.dtd">
<svg version="1.1" id="Capa_1" xmlns="http://www.w3.org/2000/svg" xmlns:xlink="http://www.w3.org/1999/xlink" x="0px" y="0px"
	 viewBox="-35 132.8 439.9 248.6" enable-background="new -35 132.8 439.9 248.6" xml:space="preserve">
<g>
	<g>
		<path d="M79.8,209.2H41.5v38.2h38.2c11.5,0,19.1-7.6,19.1-19.1S91.2,209.2,79.8,209.2z"/>
		<path d="M194.5,209.2h-38.2v95.6h38.2c11.5,0,19.1-7.6,19.1-19.1v-57.4C213.6,216.9,206,209.2,194.5,209.2z"/>
		<path d="M347.5,132.8H22.4c-32.5,0-57.4,24.9-57.4,57.4V324c0,32.5,24.9,57.4,57.4,57.4h325.1c32.5,0,57.4-24.9,57.4-57.4V190.1
			C404.9,157.6,380,132.8,347.5,132.8z M79.8,266.6H41.5V324H22.4v-95.6v-38.2h57.4c21,0,38.2,17.2,38.2,38.2
			C118,249.4,100.8,266.6,79.8,266.6z M232.8,285.8c0,21-17.2,38.2-38.2,38.2h-57.4V190.1h57.4c21,0,38.2,17.2,38.2,38.2V285.8z
			 M347.5,209.2H271v38.2h57.4v19.1H271V324h-19.1V190.1h95.6V209.2z"/>
	</g>
</g>
</svg>
