<?xml version="1.0" encoding="utf-8"?>
<!-- Generator: Adobe Illustrator 18.1.1, SVG Export Plug-In . SVG Version: 6.00 Build 0)  -->
<!DOCTYPE svg PUBLIC "-//W3C//DTD SVG 1.1//EN" "http://www.w3.org/Graphics/SVG/1.1/DTD/svg11.dtd">
<svg version="1.1" id="Capa_1" xmlns="http://www.w3.org/2000/svg" xmlns:xlink="http://www.w3.org/1999/xlink" x="0px" y="0px"
	 viewBox="0 0 512 512" enable-background="new 0 0 512 512" xml:space="preserve">
<g>
	<path fill="#000002" d="M16.4,93.1h85.8c7.3,27.7,32.5,48.1,62.4,48.1s55.1-20.5,62.4-48.1h268.5c9.1,0,16.4-7.3,16.4-16.4
		s-7.3-16.4-16.4-16.4H227.1c-7.3-27.7-32.5-48.1-62.4-48.1s-55.1,20.5-62.4,48.1H16.4C7.3,60.3,0,67.7,0,76.7S7.3,93.1,16.4,93.1z
		 M164.7,45c17.5,0,31.7,14.2,31.7,31.7s-14.2,31.7-31.7,31.7S133,94.2,133,76.7S147.2,45,164.7,45z"/>
	<path fill="#000002" d="M495.6,239.6H386.2c-7.3-27.7-32.5-48.1-62.4-48.1c-29.9,0-55.1,20.5-62.4,48.1H16.4
		C7.3,239.6,0,246.9,0,256c0,9.1,7.3,16.4,16.4,16.4h244.9c7.3,27.7,32.5,48.1,62.4,48.1s55.1-20.5,62.4-48.1h109.4
		c9.1,0,16.4-7.3,16.4-16.4C512,246.9,504.7,239.6,495.6,239.6z M323.8,287.7c-17.5,0-31.7-14.2-31.7-31.7s14.2-31.7,31.7-31.7
		s31.7,14.2,31.7,31.7S341.3,287.7,323.8,287.7z"/>
	<path fill="#000002" d="M495.6,418.9H227.1c-7.3-27.7-32.5-48.1-62.4-48.1s-55.1,20.5-62.4,48.1H16.4c-9.1,0-16.4,7.3-16.4,16.4
		s7.3,16.4,16.4,16.4h85.8c7.3,27.7,32.5,48.1,62.4,48.1s55.1-20.5,62.4-48.1h268.5c9.1,0,16.4-7.3,16.4-16.4
		S504.7,418.9,495.6,418.9z M164.7,467c-17.5,0-31.7-14.2-31.7-31.7c0-17.5,14.2-31.7,31.7-31.7s31.7,14.2,31.7,31.7
		C196.4,452.8,182.2,467,164.7,467z"/>
</g>
</svg>
