<?xml version="1.0" encoding="utf-8"?>
<!-- Generator: Adobe Illustrator 18.1.1, SVG Export Plug-In . SVG Version: 6.00 Build 0)  -->
<!DOCTYPE svg PUBLIC "-//W3C//DTD SVG 1.1//EN" "http://www.w3.org/Graphics/SVG/1.1/DTD/svg11.dtd">
<svg version="1.1" id="Capa_1" xmlns="http://www.w3.org/2000/svg" xmlns:xlink="http://www.w3.org/1999/xlink" x="0px" y="0px"
	 viewBox="-490.6 369.2 23 31.8" enable-background="new -490.6 369.2 23 31.8" xml:space="preserve">
<g>
	<g>
		<path d="M-473.9,374.1c0-0.7-0.6-1.3-1.3-1.3h-0.7c0-0.1,0-0.3,0-0.4c0-1.8-1.4-3.2-3.2-3.2c-1.8,0-3.2,1.4-3.2,3.2
			c0,0.1,0,0.3,0,0.4h-0.7c-0.7,0-1.3,0.6-1.3,1.3h-3.8c-1.4,0-2.6,1.2-2.6,2.6v21.7c0,1.4,1.2,2.6,2.6,2.6h17.8
			c1.4,0,2.6-1.2,2.6-2.6v-21.7c0-1.4-1.2-2.6-2.6-2.6H-473.9z M-480.4,372.4c0-0.7,0.6-1.3,1.3-1.3c0.7,0,1.3,0.6,1.3,1.3
			c0,0.1,0,0.3-0.1,0.4h-2.4C-480.3,372.7-480.4,372.6-480.4,372.4z M-470.1,397c0,0.8-0.6,1.4-1.4,1.4h-15c-0.8,0-1.4-0.6-1.4-1.4
			v-18.8c0-0.8,0.6-1.4,1.4-1.4h2.4v1.3c0,0.7,0.6,1.3,1.3,1.3h7.7c0.7,0,1.3-0.6,1.3-1.3v-1.3h2.4c0.8,0,1.4,0.6,1.4,1.4
			L-470.1,397L-470.1,397z"/>
		<path d="M-484.8,382c-0.7,0-1.3,0.6-1.3,1.3c0,0.7,0.6,1.3,1.3,1.3h11.5c0.7,0,1.3-0.6,1.3-1.3c0-0.7-0.6-1.3-1.3-1.3H-484.8z"/>
		<path d="M-473.3,386.2h-11.5c-0.7,0-1.3,0.6-1.3,1.3c0,0.7,0.6,1.3,1.3,1.3h11.5c0.7,0,1.3-0.6,1.3-1.3
			C-472,386.8-472.6,386.2-473.3,386.2z"/>
		<path d="M-473.3,390.5h-11.5c-0.7,0-1.3,0.6-1.3,1.3c0,0.7,0.6,1.3,1.3,1.3h11.5c0.7,0,1.3-0.6,1.3-1.3
			C-472,391.1-472.6,390.5-473.3,390.5z"/>
	</g>
</g>
</svg>
