<?xml version="1.0" encoding="utf-8"?>
<!-- Generator: Adobe Illustrator 18.1.1, SVG Export Plug-In . SVG Version: 6.00 Build 0)  -->
<!DOCTYPE svg PUBLIC "-//W3C//DTD SVG 1.1//EN" "http://www.w3.org/Graphics/SVG/1.1/DTD/svg11.dtd">
<svg version="1.1" id="Capa_1" xmlns="http://www.w3.org/2000/svg" xmlns:xlink="http://www.w3.org/1999/xlink" x="0px" y="0px"
	 viewBox="8 -8.8 528.8 528.8" enable-background="new 8 -8.8 528.8 528.8" xml:space="preserve">
<g>
	<path fill="#FFFFFF" d="M521.7,196l-29.5,29.5l-82.1-82.1l29.5-29.5c9.3-9.3,23.3-10.4,31.1-2.6l53.6,53.6
		C532.2,172.8,531,186.7,521.7,196z M396.4,157.1l82.1,82.1L282.7,435.1c-0.9,0.9-3.4,3.4-6.9,4.3c-0.4,0.2-0.8,0.4-1.2,0.5
		l-102.2,32.6c-2.9,0.9-5.7,0.3-7.6-1.5c-1.9-1.9-2.4-4.7-1.6-7.6l32.6-102.2c0.1-0.4,0.3-0.8,0.5-1.2c0.9-3.5,3.4-6,4.3-6.9
		l36.8-36.8H113c-5,0-9.1-4.1-9.1-9.1c0-5,4.1-9.1,9.1-9.1h142.5L396.4,157.1z M257.4,428.8l-50.6-50.6l-13.6,42.6l21.6,21.6
		L257.4,428.8z M393.3,189.7c-2.9-2.9-7.6-2.9-10.5,0L230,342.4c-2.9,2.9-2.9,7.6,0,10.5s7.6,2.9,10.5,0l152.7-152.7
		C396.2,197.3,396.2,192.6,393.3,189.7z M384,480.4c0,5.5-4.4,9.9-9.9,9.9H194l-16.3,5.2c-3.3,1-6.6,1.6-10,1.6
		c-7.2,0-13.8-2.5-19.3-6.8H54.9c-5.5,0-9.9-4.4-9.9-9.9V64.6c0-5.5,4.4-9.9,9.9-9.9H92v15.7c0,5.5,4.4,9.9,9.9,9.9
		c5.5,0,9.9-4.4,9.9-9.9V54.7h56.9v15.7c0,5.5,4.4,9.9,9.9,9.9c5.5,0,9.9-4.4,9.9-9.9V54.7H238v15.7c0,5.5,4.4,9.9,9.9,9.9
		c5.5,0,9.9-4.4,9.9-9.9V54.7h54.5v15.7c0,5.5,4.4,9.9,9.9,9.9c5.5,0,9.9-4.4,9.9-9.9V54.7h42.1c5.5,0,9.9,4.4,9.9,9.9v68.6
		l10.4-10.4l19.3-19.3V64.6c0-21.8-17.8-39.6-39.6-39.6h-42.1V1.1c0-5.5-4.4-9.9-9.9-9.9c-5.5,0-9.9,4.4-9.9,9.9V25h-54.5V1.1
		c0-5.5-4.4-9.9-9.9-9.9c-5.5,0-9.9,4.4-9.9,9.9V25h-49.5V1.1c0-5.5-4.4-9.9-9.9-9.9c-5.5,0-9.9,4.4-9.9,9.9V25h-56.9V1.1
		c0-5.5-4.4-9.9-9.9-9.9c-5.5,0-9.9,4.4-9.9,9.9V25H54.9C33,25,15.3,42.8,15.3,64.6v415.8c0,21.8,17.8,39.6,39.6,39.6h319.3
		c21.8,0,39.6-17.8,39.6-39.6V336.3L384,366L384,480.4L384,480.4L384,480.4z M306.7,143.6H113c-5,0-9.1,4.1-9.1,9.1
		c0,5,4.1,9.1,9.1,9.1h193.7c5,0,9.1-4.1,9.1-9.1C315.8,147.7,311.7,143.6,306.7,143.6z M306.7,216.8H113c-5,0-9.1,4.1-9.1,9.1
		c0,5,4.1,9.1,9.1,9.1h193.7c5,0,9.1-4.1,9.1-9.1C315.8,220.9,311.7,216.8,306.7,216.8z"/>
</g>
</svg>
