<?xml version="1.0" encoding="utf-8"?>
<!-- Generator: Adobe Illustrator 18.1.1, SVG Export Plug-In . SVG Version: 6.00 Build 0)  -->
<!DOCTYPE svg PUBLIC "-//W3C//DTD SVG 1.1//EN" "http://www.w3.org/Graphics/SVG/1.1/DTD/svg11.dtd">
<svg version="1.1" id="Capa_1" xmlns="http://www.w3.org/2000/svg" xmlns:xlink="http://www.w3.org/1999/xlink" x="0px" y="0px"
	 viewBox="-4.2 -90.8 886.2 949.8" enable-background="new -4.2 -90.8 886.2 949.8" xml:space="preserve">
<g>
	<g>
		<path d="M45.8,859H832c27.6,0,50-22.4,50-50V629c0-27.6-22.4-50-50-50H45.8c-27.6,0-50,22.4-50,50v180
			C-4.2,836.6,18.2,859,45.8,859z M126.3,679.1c22.1,0,40,17.9,40,40c0,22.1-17.9,40-40,40s-40-17.9-40-40
			C86.3,697,104.2,679.1,126.3,679.1z"/>
		<path d="M45.8,524.1H832c27.6,0,50-22.4,50-50v-180c0-27.6-22.4-50-50-50H45.8c-27.6,0-50,22.4-50,50v180
			C-4.2,501.7,18.2,524.1,45.8,524.1z M126.3,344.2c22.1,0,40,17.9,40,40c0,22.1-17.9,40-40,40s-40-17.9-40-40
			C86.3,362.1,104.2,344.2,126.3,344.2z"/>
		<path d="M45.8,189.2H832c27.6,0,50-22.4,50-50v-180c0-27.6-22.4-50-50-50H45.8c-27.6,0-50,22.4-50,50v180
			C-4.2,166.8,18.2,189.2,45.8,189.2z M126.3,9.3c22.1,0,40,17.9,40,40s-17.9,40-40,40s-40-17.9-40-40S104.2,9.3,126.3,9.3z"/>
	</g>
</g>
</svg>
