<?xml version="1.0" encoding="utf-8"?>
<!-- Generator: Adobe Illustrator 18.1.1, SVG Export Plug-In . SVG Version: 6.00 Build 0)  -->
<!DOCTYPE svg PUBLIC "-//W3C//DTD SVG 1.1//EN" "http://www.w3.org/Graphics/SVG/1.1/DTD/svg11.dtd">
<svg version="1.1" id="Layer_1" xmlns="http://www.w3.org/2000/svg" xmlns:xlink="http://www.w3.org/1999/xlink" x="0px" y="0px"
	 viewBox="0 0 583 563" enable-background="new 0 0 583 563" xml:space="preserve">
<g>
	<defs>
		<rect id="SVGID_1_" x="66" width="451" height="563"/>
	</defs>
	<clipPath id="SVGID_2_">
		<use xlink:href="#SVGID_1_"  overflow="visible"/>
	</clipPath>
	<path clip-path="url(#SVGID_2_)" d="M494.5,487.4h-406c-12.4,0-22.5,10.2-22.5,22.5v30c0,12.4,10.2,22.5,22.5,22.5h405.8
		c12.4,0,22.5-10.2,22.5-22.5v-30C517,497.4,506.9,487.4,494.5,487.4L494.5,487.4z M494.5,487.4"/>
</g>
<path d="M275.8,447.2c4.4,4.4,10.2,6.6,15.8,6.6c5.8,0,11.5-2.2,15.8-6.6l153.8-153.8c8.7-8.7,8.7-23,0-31.8l-21.3-21.3
	c-8.7-8.7-23-8.7-31.8,0l-79,79.1v-297C329,10.1,318.9,0,306.6,0h-30c-12.4,0-22.5,10-22.5,22.5v297L175,240.4
	c-8.7-8.7-23-8.7-31.8,0l-21.3,21.3c-8.7,8.7-8.7,23,0,31.8L275.8,447.2z M275.8,447.2"/>
</svg>
